#N canvas 685 22 681 351 10;
#N canvas 4 22 681 724 button 1;
#X obj 382 13 inlet;
#X obj 188 13 inlet;
#X obj 13 194 counter;
#X obj 13 224 % 2;
#X obj 13 133 stripnote;
#X obj 13 101 notein;
#X obj 13 382 noteout;
#X obj 13 164 select 1;
#X text 91 268 Midi feedback Turn button on/off;
#X floatatom 188 102 5 0 0 0 - - -;
#X obj 196 54 loadbang;
#X text 227 102 Currently selected midi note;
#X msg 52 360 1;
#X obj 52 339 loadbang;
#X obj 55 303 prepend set;
#X floatatom 13 340 5 0 0 0 - - -;
#X obj 13 271 * 127;
#X obj 13 303 t b i;
#X obj -103 455 outlet;
#X obj 188 124 t b i;
#X msg 196 77 1;
#X text 227 13 Optional midi note;
#X text 255 53 Midi note defaults to 1;
#X text 420 7 Optional channel;
#X text 421 20 (defaults to 1);
#X text 116 168 <----------------- When initializing a button we set
the;
#X text 230 182 default value to 0 and output it in order;
#X text 230 196 to synchronize the button with the value;
#X text 232 210 of whatever is attached to the outlet;
#X text -56 484 1 when it is turned on;
#X text 232 509;
#X text -58 451 Returns:;
#X text -57 467 0 when button is turned off;
#X obj -103 1 inlet;
#X text -65 1 Trun button on/off;
#X text -64 7;
#X obj -103 28 moses 1;
#X msg -64 53 1;
#X obj -103 332 moses 2;
#X obj -103 123 t b b b;
#X msg -64 287 0;
#X msg -103 287 2;
#X text 74 134 Ignore "keyup";
#X connect 1 0 9 0;
#X connect 2 0 3 0;
#X connect 3 0 16 0;
#X connect 3 0 38 0;
#X connect 4 0 7 0;
#X connect 5 0 4 0;
#X connect 5 1 4 1;
#X connect 7 0 2 0;
#X connect 9 0 19 0;
#X connect 10 0 20 0;
#X connect 12 0 6 2;
#X connect 13 0 12 0;
#X connect 14 0 15 0;
#X connect 15 0 6 0;
#X connect 16 0 17 0;
#X connect 17 0 15 0;
#X connect 17 1 6 1;
#X connect 19 0 2 3;
#X connect 19 1 14 0;
#X connect 19 1 7 1;
#X connect 20 0 9 0;
#X connect 33 0 36 0;
#X connect 36 0 39 0;
#X connect 36 1 37 0;
#X connect 37 0 2 2;
#X connect 37 0 16 0;
#X connect 38 0 18 0;
#X connect 39 0 41 0;
#X connect 39 1 2 3;
#X connect 39 2 40 0;
#X connect 40 0 38 1;
#X connect 41 0 38 1;
#X restore 85 66 pd button;
#X floatatom 110 39 5 0 0 0 - - -;
#X obj 85 110 bng 15 250 50 0 empty empty empty 17 7 0 10 -262144 -1
-1;
#X floatatom 85 88 5 0 0 0 - - -;
#X msg 21 24 0;
#X msg 65 15 1;
#X obj 58 66 tgl 15 0 empty empty empty 17 7 0 10 -262144 -1 -1 0 1
;
#X obj 40 136 tgl 15 0 empty empty empty 17 7 0 10 -262144 -1 -1 0
1;
#X connect 0 0 3 0;
#X connect 0 0 6 0;
#X connect 1 0 0 1;
#X connect 3 0 2 0;
#X connect 4 0 0 0;
#X connect 4 0 7 0;
#X connect 5 0 0 0;
#X connect 6 0 0 0;
