#N canvas 685 22 681 351 10;
#N canvas 4 22 681 724 button 1;
#X obj 13 13 inlet;
#X obj 163 13 inlet;
#X obj 13 194 counter;
#X obj 13 224 % 2;
#X obj 13 133 stripnote;
#X obj 13 101 notein;
#X obj 13 382 noteout;
#X text -120 133 Ignore "keyup" event;
#X obj 13 164 select 1;
#X text 91 268 Midi feedback Turn button on/off;
#X floatatom 163 102 5 0 0 0 - - -;
#X obj 171 54 loadbang;
#X text 202 102 Currently selected midi note;
#X msg 52 360 1;
#X obj 52 339 loadbang;
#X obj 55 303 prepend set;
#X floatatom 13 340 5 0 0 0 - - -;
#X obj 13 271 * 127;
#X obj 13 303 t b i;
#X obj -103 455 outlet;
#X obj 163 124 t b i;
#X msg 171 77 1;
#X text 202 13 Optional midi note;
#X text 230 53 Midi note defaults to 1;
#X text 51 7 Optional channel;
#X text 52 20 (defaults to 1);
#X text 91 168 <----------------- When initializing a button we set
the;
#X text 205 182 default value to 0 and output it in order;
#X text 205 196 to synchronize the button with the value;
#X text 207 210 of whatever is attached to the outlet;
#X text -56 484 1 when it is turned on;
#X text 232 509;
#X text -58 451 Returns:;
#X text -57 467 0 when button is turned off;
#X connect 1 0 10 0;
#X connect 2 0 3 0;
#X connect 3 0 17 0;
#X connect 3 0 19 0;
#X connect 4 0 8 0;
#X connect 5 0 4 0;
#X connect 5 1 4 1;
#X connect 8 0 2 0;
#X connect 10 0 20 0;
#X connect 11 0 21 0;
#X connect 13 0 6 2;
#X connect 14 0 13 0;
#X connect 15 0 16 0;
#X connect 16 0 6 0;
#X connect 17 0 18 0;
#X connect 18 0 16 0;
#X connect 18 1 6 1;
#X connect 20 0 2 3;
#X connect 20 1 15 0;
#X connect 20 1 8 1;
#X connect 21 0 10 0;
#X restore 85 66 pd button;
#X floatatom 83 23 5 0 0 0 - - -;
#X connect 1 0 0 1;
