#N canvas 716 22 681 351 10;
#N canvas 4 22 681 724 button 1;
#X obj 13 13 inlet;
#X text 51 7 Optional channel (defaults to 1);
#X obj 163 13 inlet;
#X obj 13 194 counter;
#X obj 13 224 % 2;
#X obj 13 133 stripnote;
#X obj 13 101 notein;
#X obj 13 382 noteout;
#X text -120 133 Ignore "keyup" event;
#X obj 13 164 select 1;
#X text 91 268 Midi feedback Turn button on/off;
#X floatatom 163 102 5 0 0 0 - - -;
#X obj 171 54 loadbang;
#X text 202 102 Currently selected midi note;
#X msg 52 360 1;
#X obj 52 339 loadbang;
#X obj 55 303 prepend set;
#X floatatom 13 340 5 0 0 0 - - -;
#X obj 13 271 * 127;
#X obj 13 303 t b i;
#X obj -103 455 outlet;
#X text -58 451 Returns: 0 when button is turned off \, 1 when it is
turned on;
#X obj 163 124 t b i;
#X text 205 181 to a midi note \, we set it to 0 and output the value.
This way the midi feedback and whatever is attached to the output are
in sync.;
#X text 91 168 <----------------- When initializing a button;
#X msg 171 77 1;
#X text 202 13 Optional midi note;
#X text 230 53 Midi note defaults to 1;
#X connect 2 0 11 0;
#X connect 3 0 4 0;
#X connect 4 0 18 0;
#X connect 4 0 20 0;
#X connect 5 0 9 0;
#X connect 6 0 5 0;
#X connect 6 1 5 1;
#X connect 9 0 3 0;
#X connect 11 0 22 0;
#X connect 12 0 25 0;
#X connect 14 0 7 2;
#X connect 15 0 14 0;
#X connect 16 0 17 0;
#X connect 17 0 7 0;
#X connect 18 0 19 0;
#X connect 19 0 17 0;
#X connect 19 1 7 1;
#X connect 22 0 3 3;
#X connect 22 1 16 0;
#X connect 22 1 9 1;
#X connect 25 0 11 0;
#X restore 85 66 pd button;
